<?xml version="1.0" encoding="UTF-8" standalone="no"?>
<!DOCTYPE svg PUBLIC "-//W3C//DTD SVG 1.1//EN"
 "http://www.w3.org/Graphics/SVG/1.1/DTD/svg11.dtd">
<!-- Generated by graphviz version 8.1.0 (20230707.0739)
 -->
<!-- Pages: 1 -->
<svg width="2114pt" height="980pt"
 viewBox="0.00 0.00 2114.43 980.00" xmlns="http://www.w3.org/2000/svg" xmlns:xlink="http://www.w3.org/1999/xlink">
<g id="graph0" class="graph" transform="scale(1 1) rotate(0) translate(4 976)">
<polygon fill="white" stroke="none" points="-4,4 -4,-976 2110.43,-976 2110.43,4 -4,4"/>
<!-- nd -->
<g id="node1" class="node">
<title>nd</title>
<ellipse fill="none" stroke="black" cx="280" cy="-882" rx="28.32" ry="18"/>
<text text-anchor="middle" x="280" y="-876.95" font-family="Times,serif" font-size="14.00">%nd</text>
</g>
<!-- fs -->
<g id="node2" class="node">
<title>fs</title>
<ellipse fill="none" stroke="black" cx="225" cy="-810" rx="27" ry="18"/>
<text text-anchor="middle" x="225" y="-804.95" font-family="Times,serif" font-size="14.00">%fs</text>
</g>
<!-- nd&#45;&gt;fs -->
<g id="edge1" class="edge">
<title>nd&#45;&gt;fs</title>
<path fill="none" stroke="black" d="M267.79,-865.46C260.74,-856.49 251.73,-845.02 243.79,-834.92"/>
<polygon fill="black" stroke="black" points="246.1,-833.19 237.17,-827.49 240.6,-837.52 246.1,-833.19"/>
</g>
<!-- qz -->
<g id="node4" class="node">
<title>qz</title>
<ellipse fill="none" stroke="black" cx="253" cy="-738" rx="27.3" ry="18"/>
<text text-anchor="middle" x="253" y="-732.95" font-family="Times,serif" font-size="14.00">&amp;qz</text>
</g>
<!-- fs&#45;&gt;qz -->
<g id="edge65" class="edge">
<title>fs&#45;&gt;qz</title>
<path fill="none" stroke="black" d="M231.64,-792.41C234.84,-784.39 238.77,-774.57 242.38,-765.54"/>
<polygon fill="black" stroke="black" points="245.95,-767.05 246.41,-756.47 239.45,-764.45 245.95,-767.05"/>
</g>
<!-- sj -->
<g id="node15" class="node">
<title>sj</title>
<ellipse fill="none" stroke="black" cx="27" cy="-666" rx="27" ry="18"/>
<text text-anchor="middle" x="27" y="-660.95" font-family="Times,serif" font-size="14.00">%sj</text>
</g>
<!-- fs&#45;&gt;sj -->
<g id="edge66" class="edge">
<title>fs&#45;&gt;sj</title>
<path fill="none" stroke="black" d="M207.08,-796.15C172.2,-771.13 95,-715.77 53.93,-686.31"/>
<polygon fill="black" stroke="black" points="56.19,-682.91 46.02,-679.93 52.11,-688.6 56.19,-682.91"/>
</g>
<!-- ql -->
<g id="node3" class="node">
<title>ql</title>
<ellipse fill="none" stroke="black" cx="206" cy="-306" rx="27" ry="18"/>
<text text-anchor="middle" x="206" y="-300.95" font-family="Times,serif" font-size="14.00">%ql</text>
</g>
<!-- ql&#45;&gt;qz -->
<g id="edge2" class="edge">
<title>ql&#45;&gt;qz</title>
<path fill="none" stroke="black" d="M211.53,-323.84C219.69,-350.21 234,-403.02 234,-449 234,-595 234,-595 234,-595 234,-635 241.5,-680.79 247.08,-709.31"/>
<polygon fill="black" stroke="black" points="243.83,-709.94 249.25,-719.05 250.7,-708.55 243.83,-709.94"/>
</g>
<!-- qz&#45;&gt;nd -->
<g id="edge40" class="edge">
<title>qz&#45;&gt;nd</title>
<path fill="none" stroke="black" d="M256.27,-756.19C260.86,-780.32 269.26,-824.5 274.73,-853.3"/>
<polygon fill="black" stroke="black" points="271.44,-853.7 276.74,-862.87 278.31,-852.39 271.44,-853.7"/>
</g>
<!-- qz&#45;&gt;sj -->
<g id="edge41" class="edge">
<title>qz&#45;&gt;sj</title>
<path fill="none" stroke="black" d="M227.58,-730.7C191.65,-721.57 124.14,-703.61 68,-684 65.07,-682.98 62.04,-681.85 59.02,-680.69"/>
<polygon fill="black" stroke="black" points="60.54,-677.12 49.95,-676.64 57.93,-683.62 60.54,-677.12"/>
</g>
<!-- zt -->
<g id="node25" class="node">
<title>zt</title>
<ellipse fill="none" stroke="black" cx="347" cy="-522" rx="27" ry="18"/>
<text text-anchor="middle" x="347" y="-516.95" font-family="Times,serif" font-size="14.00">%zt</text>
</g>
<!-- qz&#45;&gt;zt -->
<g id="edge46" class="edge">
<title>qz&#45;&gt;zt</title>
<path fill="none" stroke="black" d="M257.4,-719.93C265.52,-689.84 284.38,-625.84 310,-576 315.18,-565.93 322.03,-555.56 328.42,-546.69"/>
<polygon fill="black" stroke="black" points="331.67,-549.18 334.83,-539.07 326.06,-545.01 331.67,-549.18"/>
</g>
<!-- sk -->
<g id="node26" class="node">
<title>sk</title>
<ellipse fill="none" stroke="black" cx="422" cy="-450" rx="27.3" ry="18"/>
<text text-anchor="middle" x="422" y="-444.95" font-family="Times,serif" font-size="14.00">%sk</text>
</g>
<!-- qz&#45;&gt;sk -->
<g id="edge42" class="edge">
<title>qz&#45;&gt;sk</title>
<path fill="none" stroke="black" d="M280.58,-735.86C315.26,-732.81 373.76,-721.97 403,-684 449.56,-623.55 437.98,-526.23 428.55,-478.79"/>
<polygon fill="black" stroke="black" points="431.78,-478.18 426.29,-469.12 424.93,-479.63 431.78,-478.18"/>
</g>
<!-- gp -->
<g id="node43" class="node">
<title>gp</title>
<ellipse fill="none" stroke="black" cx="347" cy="-594" rx="28.32" ry="18"/>
<text text-anchor="middle" x="347" y="-588.95" font-family="Times,serif" font-size="14.00">%gp</text>
</g>
<!-- qz&#45;&gt;gp -->
<g id="edge43" class="edge">
<title>qz&#45;&gt;gp</title>
<path fill="none" stroke="black" d="M263.6,-720.99C279.82,-696.48 310.94,-649.47 330.24,-620.32"/>
<polygon fill="black" stroke="black" points="333.69,-622.44 336.29,-612.17 327.86,-618.58 333.69,-622.44"/>
</g>
<!-- gc -->
<g id="node44" class="node">
<title>gc</title>
<ellipse fill="none" stroke="black" cx="819" cy="-666" rx="27.3" ry="18"/>
<text text-anchor="middle" x="819" y="-660.95" font-family="Times,serif" font-size="14.00">&amp;gc</text>
</g>
<!-- qz&#45;&gt;gc -->
<g id="edge44" class="edge">
<title>qz&#45;&gt;gc</title>
<path fill="none" stroke="black" d="M279.92,-733.67C372.02,-722.28 674.71,-684.84 781.39,-671.65"/>
<polygon fill="black" stroke="black" points="781.75,-675.01 791.25,-670.31 780.89,-668.06 781.75,-675.01"/>
</g>
<!-- vh -->
<g id="node45" class="node">
<title>vh</title>
<ellipse fill="none" stroke="black" cx="366" cy="-666" rx="28.32" ry="18"/>
<text text-anchor="middle" x="366" y="-660.95" font-family="Times,serif" font-size="14.00">%vh</text>
</g>
<!-- qz&#45;&gt;vh -->
<g id="edge45" class="edge">
<title>qz&#45;&gt;vh</title>
<path fill="none" stroke="black" d="M269.33,-723.5C286.33,-711.98 313.02,-695.38 334.14,-683.15"/>
<polygon fill="black" stroke="black" points="335.74,-685.7 342.69,-677.71 332.27,-679.62 335.74,-685.7"/>
</g>
<!-- gz -->
<g id="node5" class="node">
<title>gz</title>
<ellipse fill="none" stroke="black" cx="1228" cy="-306" rx="27.81" ry="18"/>
<text text-anchor="middle" x="1228" y="-300.95" font-family="Times,serif" font-size="14.00">%gz</text>
</g>
<!-- vv -->
<g id="node6" class="node">
<title>vv</title>
<ellipse fill="none" stroke="black" cx="1190" cy="-234" rx="28.32" ry="18"/>
<text text-anchor="middle" x="1190" y="-228.95" font-family="Times,serif" font-size="14.00">%vv</text>
</g>
<!-- gz&#45;&gt;vv -->
<g id="edge3" class="edge">
<title>gz&#45;&gt;vv</title>
<path fill="none" stroke="black" d="M1219.19,-288.76C1214.68,-280.46 1209.08,-270.15 1204,-260.79"/>
<polygon fill="black" stroke="black" points="1206.61,-259.27 1198.77,-252.15 1200.46,-262.61 1206.61,-259.27"/>
</g>
<!-- mq -->
<g id="node21" class="node">
<title>mq</title>
<ellipse fill="none" stroke="black" cx="1172" cy="-162" rx="31.39" ry="18"/>
<text text-anchor="middle" x="1172" y="-156.95" font-family="Times,serif" font-size="14.00">%mq</text>
</g>
<!-- vv&#45;&gt;mq -->
<g id="edge13" class="edge">
<title>vv&#45;&gt;mq</title>
<path fill="none" stroke="black" d="M1185.64,-216.05C1183.68,-208.43 1181.32,-199.23 1179.11,-190.65"/>
<polygon fill="black" stroke="black" points="1182.32,-190.09 1176.44,-181.28 1175.54,-191.83 1182.32,-190.09"/>
</g>
<!-- db -->
<g id="node22" class="node">
<title>db</title>
<ellipse fill="none" stroke="black" cx="1267" cy="-810" rx="27.81" ry="18"/>
<text text-anchor="middle" x="1267" y="-804.95" font-family="Times,serif" font-size="14.00">&amp;db</text>
</g>
<!-- vv&#45;&gt;db -->
<g id="edge14" class="edge">
<title>vv&#45;&gt;db</title>
<path fill="none" stroke="black" d="M1186.44,-251.96C1181.2,-278.5 1172,-331.52 1172,-377 1172,-667 1172,-667 1172,-667 1172,-717.27 1213.63,-763.21 1241.78,-788.53"/>
<polygon fill="black" stroke="black" points="1239.18,-791.77 1249.02,-795.7 1243.77,-786.49 1239.18,-791.77"/>
</g>
<!-- lg -->
<g id="node7" class="node">
<title>lg</title>
<ellipse fill="none" stroke="black" cx="758" cy="-882" rx="27" ry="18"/>
<text text-anchor="middle" x="758" y="-876.95" font-family="Times,serif" font-size="14.00">%lg</text>
</g>
<!-- zx -->
<g id="node8" class="node">
<title>zx</title>
<ellipse fill="none" stroke="black" cx="791" cy="-810" rx="27.81" ry="18"/>
<text text-anchor="middle" x="791" y="-804.95" font-family="Times,serif" font-size="14.00">%zx</text>
</g>
<!-- lg&#45;&gt;zx -->
<g id="edge4" class="edge">
<title>lg&#45;&gt;zx</title>
<path fill="none" stroke="black" d="M765.82,-864.41C769.64,-856.3 774.33,-846.35 778.63,-837.25"/>
<polygon fill="black" stroke="black" points="782.14,-839.01 783.24,-828.47 775.81,-836.02 782.14,-839.01"/>
</g>
<!-- lx -->
<g id="node9" class="node">
<title>lx</title>
<ellipse fill="none" stroke="black" cx="726" cy="-738" rx="27" ry="18"/>
<text text-anchor="middle" x="726" y="-732.95" font-family="Times,serif" font-size="14.00">&amp;lx</text>
</g>
<!-- lg&#45;&gt;lx -->
<g id="edge5" class="edge">
<title>lg&#45;&gt;lx</title>
<path fill="none" stroke="black" d="M749.74,-864.43C741.76,-840.54 731.42,-796.08 726.81,-767.02"/>
<polygon fill="black" stroke="black" points="730.17,-766.76 725.3,-757.35 723.24,-767.74 730.17,-766.76"/>
</g>
<!-- zx&#45;&gt;lx -->
<g id="edge84" class="edge">
<title>zx&#45;&gt;lx</title>
<path fill="none" stroke="black" d="M777.22,-794.15C768.51,-784.78 757.09,-772.48 747.24,-761.88"/>
<polygon fill="black" stroke="black" points="750.13,-759.77 740.76,-754.82 745,-764.53 750.13,-759.77"/>
</g>
<!-- hf -->
<g id="node19" class="node">
<title>hf</title>
<ellipse fill="none" stroke="black" cx="929" cy="-666" rx="27" ry="18"/>
<text text-anchor="middle" x="929" y="-660.95" font-family="Times,serif" font-size="14.00">%hf</text>
</g>
<!-- zx&#45;&gt;hf -->
<g id="edge85" class="edge">
<title>zx&#45;&gt;hf</title>
<path fill="none" stroke="black" d="M805.25,-794.34C829.55,-769.34 879.12,-718.32 907.6,-689.02"/>
<polygon fill="black" stroke="black" points="909.57,-691.98 914.03,-682.37 904.56,-687.1 909.57,-691.98"/>
</g>
<!-- lx&#45;&gt;lg -->
<g id="edge103" class="edge">
<title>lx&#45;&gt;lg</title>
<path fill="none" stroke="black" d="M734.15,-755.24C742.13,-779.02 752.53,-823.67 757.17,-852.86"/>
<polygon fill="black" stroke="black" points="753.82,-853.18 758.69,-862.59 760.75,-852.2 753.82,-853.18"/>
</g>
<!-- lx&#45;&gt;hf -->
<g id="edge101" class="edge">
<title>lx&#45;&gt;hf</title>
<path fill="none" stroke="black" d="M750.35,-729.67C782.23,-719.94 839.71,-701.88 888,-684 890.75,-682.98 893.59,-681.89 896.43,-680.77"/>
<polygon fill="black" stroke="black" points="897.61,-683.66 905.57,-676.67 894.98,-677.17 897.61,-683.66"/>
</g>
<!-- fn -->
<g id="node24" class="node">
<title>fn</title>
<ellipse fill="none" stroke="black" cx="650" cy="-378" rx="27" ry="18"/>
<text text-anchor="middle" x="650" y="-372.95" font-family="Times,serif" font-size="14.00">%fn</text>
</g>
<!-- lx&#45;&gt;fn -->
<g id="edge100" class="edge">
<title>lx&#45;&gt;fn</title>
<path fill="none" stroke="black" d="M706.66,-725.19C674.14,-703.67 612,-654.75 612,-595 612,-595 612,-595 612,-521 612,-479.59 627.27,-433.62 638.45,-405.51"/>
<polygon fill="black" stroke="black" points="641.93,-407.24 642.49,-396.66 635.46,-404.58 641.93,-407.24"/>
</g>
<!-- vg -->
<g id="node46" class="node">
<title>vg</title>
<ellipse fill="none" stroke="black" cx="1002" cy="-666" rx="27.81" ry="18"/>
<text text-anchor="middle" x="1002" y="-660.95" font-family="Times,serif" font-size="14.00">&amp;vg</text>
</g>
<!-- lx&#45;&gt;vg -->
<g id="edge102" class="edge">
<title>lx&#45;&gt;vg</title>
<path fill="none" stroke="black" d="M752.31,-733.05C796.87,-725.94 889.67,-709.34 965,-684 966.75,-683.41 968.53,-682.77 970.31,-682.08"/>
<polygon fill="black" stroke="black" points="971.53,-684.95 979.4,-677.85 968.82,-678.49 971.53,-684.95"/>
</g>
<!-- tr -->
<g id="node10" class="node">
<title>tr</title>
<ellipse fill="none" stroke="black" cx="1683" cy="-18" rx="27" ry="18"/>
<text text-anchor="middle" x="1683" y="-12.95" font-family="Times,serif" font-size="14.00">%tr</text>
</g>
<!-- sd -->
<g id="node11" class="node">
<title>sd</title>
<ellipse fill="none" stroke="black" cx="1827" cy="-810" rx="27" ry="18"/>
<text text-anchor="middle" x="1827" y="-804.95" font-family="Times,serif" font-size="14.00">&amp;sd</text>
</g>
<!-- tr&#45;&gt;sd -->
<g id="edge6" class="edge">
<title>tr&#45;&gt;sd</title>
<path fill="none" stroke="black" d="M1677.67,-35.85C1669.8,-62.25 1656,-115.08 1656,-161 1656,-667 1656,-667 1656,-667 1656,-713.04 1674.63,-725.37 1709,-756 1732.77,-777.18 1766.39,-791.15 1791.67,-799.41"/>
<polygon fill="black" stroke="black" points="1790.35,-802.98 1800.94,-802.6 1792.43,-796.29 1790.35,-802.98"/>
</g>
<!-- zn -->
<g id="node39" class="node">
<title>zn</title>
<ellipse fill="none" stroke="black" cx="1836" cy="-234" rx="27.81" ry="18"/>
<text text-anchor="middle" x="1836" y="-228.95" font-family="Times,serif" font-size="14.00">%zn</text>
</g>
<!-- sd&#45;&gt;zn -->
<g id="edge98" class="edge">
<title>sd&#45;&gt;zn</title>
<path fill="none" stroke="black" d="M1853.98,-807.12C1913.33,-802.44 2052.54,-788.21 2085,-756 2113.71,-727.51 2104,-707.45 2104,-667 2104,-667 2104,-667 2104,-377 2104,-274.45 1948.9,-245.75 1874.68,-237.89"/>
<polygon fill="black" stroke="black" points="1875.22,-234.32 1864.92,-236.83 1874.53,-241.29 1875.22,-234.32"/>
</g>
<!-- mh -->
<g id="node41" class="node">
<title>mh</title>
<ellipse fill="none" stroke="black" cx="1827" cy="-882" rx="31.39" ry="18"/>
<text text-anchor="middle" x="1827" y="-876.95" font-family="Times,serif" font-size="14.00">%mh</text>
</g>
<!-- sd&#45;&gt;mh -->
<g id="edge94" class="edge">
<title>sd&#45;&gt;mh</title>
<path fill="none" stroke="black" d="M1832.86,-827.79C1833.68,-835.42 1833.93,-844.65 1833.62,-853.27"/>
<polygon fill="black" stroke="black" points="1830.07,-852.84 1832.88,-863.05 1837.06,-853.32 1830.07,-852.84"/>
</g>
<!-- xs -->
<g id="node42" class="node">
<title>xs</title>
<ellipse fill="none" stroke="black" cx="2049" cy="-738" rx="27.3" ry="18"/>
<text text-anchor="middle" x="2049" y="-732.95" font-family="Times,serif" font-size="14.00">%xs</text>
</g>
<!-- sd&#45;&gt;xs -->
<g id="edge99" class="edge">
<title>sd&#45;&gt;xs</title>
<path fill="none" stroke="black" d="M1852.16,-802.56C1887.37,-793.33 1953.19,-775.32 2008,-756 2010.77,-755.02 2013.62,-753.96 2016.46,-752.86"/>
<polygon fill="black" stroke="black" points="2017.63,-755.77 2025.61,-748.8 2015.03,-749.27 2017.63,-755.77"/>
</g>
<!-- sh -->
<g id="node47" class="node">
<title>sh</title>
<ellipse fill="none" stroke="black" cx="1901" cy="-666" rx="27.3" ry="18"/>
<text text-anchor="middle" x="1901" y="-660.95" font-family="Times,serif" font-size="14.00">%sh</text>
</g>
<!-- sd&#45;&gt;sh -->
<g id="edge96" class="edge">
<title>sd&#45;&gt;sh</title>
<path fill="none" stroke="black" d="M1837.65,-793.07C1844.39,-782.71 1853.11,-768.79 1860,-756 1871.01,-735.57 1881.93,-711.63 1889.73,-693.73"/>
<polygon fill="black" stroke="black" points="1893.31,-695.27 1894.05,-684.71 1886.88,-692.51 1893.31,-695.27"/>
</g>
<!-- xf -->
<g id="node50" class="node">
<title>xf</title>
<ellipse fill="none" stroke="black" cx="1911" cy="-378" rx="27" ry="18"/>
<text text-anchor="middle" x="1911" y="-372.95" font-family="Times,serif" font-size="14.00">%xf</text>
</g>
<!-- sd&#45;&gt;xf -->
<g id="edge97" class="edge">
<title>sd&#45;&gt;xf</title>
<path fill="none" stroke="black" d="M1850.93,-801.3C1897.1,-784.76 1994,-741.21 1994,-667 1994,-667 1994,-667 1994,-521 1994,-473.07 1958.32,-426.95 1933.75,-400.87"/>
<polygon fill="black" stroke="black" points="1936.7,-398.86 1927.22,-394.13 1931.69,-403.74 1936.7,-398.86"/>
</g>
<!-- tx -->
<g id="node58" class="node">
<title>tx</title>
<ellipse fill="none" stroke="black" cx="1601" cy="-738" rx="27" ry="18"/>
<text text-anchor="middle" x="1601" y="-732.95" font-family="Times,serif" font-size="14.00">&amp;tx</text>
</g>
<!-- sd&#45;&gt;tx -->
<g id="edge95" class="edge">
<title>sd&#45;&gt;tx</title>
<path fill="none" stroke="black" d="M1801.88,-802.78C1766.03,-793.67 1698.3,-775.67 1642,-756 1639.07,-754.98 1636.04,-753.85 1633.02,-752.69"/>
<polygon fill="black" stroke="black" points="1634.54,-749.12 1623.95,-748.64 1631.93,-755.62 1634.54,-749.12"/>
</g>
<!-- vn -->
<g id="node12" class="node">
<title>vn</title>
<ellipse fill="none" stroke="black" cx="178" cy="-378" rx="28.32" ry="18"/>
<text text-anchor="middle" x="178" y="-372.95" font-family="Times,serif" font-size="14.00">%vn</text>
</g>
<!-- vn&#45;&gt;ql -->
<g id="edge7" class="edge">
<title>vn&#45;&gt;ql</title>
<path fill="none" stroke="black" d="M184.78,-360.05C187.91,-352.23 191.7,-342.75 195.21,-333.98"/>
<polygon fill="black" stroke="black" points="198.82,-335.37 199.28,-324.79 192.32,-332.77 198.82,-335.37"/>
</g>
<!-- vn&#45;&gt;qz -->
<g id="edge8" class="edge">
<title>vn&#45;&gt;qz</title>
<path fill="none" stroke="black" d="M181.56,-395.96C186.8,-422.5 196,-475.52 196,-521 196,-595 196,-595 196,-595 196,-635.97 203.66,-646.43 220,-684 224.21,-693.68 229.99,-703.66 235.54,-712.32"/>
<polygon fill="black" stroke="black" points="233.15,-714.05 241.61,-720.44 238.98,-710.17 233.15,-714.05"/>
</g>
<!-- kg -->
<g id="node13" class="node">
<title>kg</title>
<ellipse fill="none" stroke="black" cx="1380" cy="-666" rx="28.32" ry="18"/>
<text text-anchor="middle" x="1380" y="-660.95" font-family="Times,serif" font-size="14.00">%kg</text>
</g>
<!-- xz -->
<g id="node14" class="node">
<title>xz</title>
<ellipse fill="none" stroke="black" cx="1342" cy="-594" rx="27.81" ry="18"/>
<text text-anchor="middle" x="1342" y="-588.95" font-family="Times,serif" font-size="14.00">%xz</text>
</g>
<!-- kg&#45;&gt;xz -->
<g id="edge9" class="edge">
<title>kg&#45;&gt;xz</title>
<path fill="none" stroke="black" d="M1371.19,-648.76C1366.68,-640.46 1361.08,-630.15 1356,-620.79"/>
<polygon fill="black" stroke="black" points="1358.61,-619.27 1350.77,-612.15 1352.46,-622.61 1358.61,-619.27"/>
</g>
<!-- xz&#45;&gt;db -->
<g id="edge64" class="edge">
<title>xz&#45;&gt;db</title>
<path fill="none" stroke="black" d="M1339.31,-612C1334.18,-641.99 1321.56,-705.84 1300,-756 1295.83,-765.69 1290.06,-775.68 1284.51,-784.34"/>
<polygon fill="black" stroke="black" points="1281.07,-782.19 1278.43,-792.45 1286.89,-786.07 1281.07,-782.19"/>
</g>
<!-- zs -->
<g id="node52" class="node">
<title>zs</title>
<ellipse fill="none" stroke="black" cx="1323" cy="-522" rx="27" ry="18"/>
<text text-anchor="middle" x="1323" y="-516.95" font-family="Times,serif" font-size="14.00">%zs</text>
</g>
<!-- xz&#45;&gt;zs -->
<g id="edge63" class="edge">
<title>xz&#45;&gt;zs</title>
<path fill="none" stroke="black" d="M1337.4,-576.05C1335.3,-568.32 1332.76,-558.96 1330.4,-550.27"/>
<polygon fill="black" stroke="black" points="1333.55,-549.52 1327.56,-540.79 1326.8,-551.36 1333.55,-549.52"/>
</g>
<!-- gs -->
<g id="node16" class="node">
<title>gs</title>
<ellipse fill="none" stroke="black" cx="65" cy="-594" rx="27.3" ry="18"/>
<text text-anchor="middle" x="65" y="-588.95" font-family="Times,serif" font-size="14.00">%gs</text>
</g>
<!-- sj&#45;&gt;gs -->
<g id="edge10" class="edge">
<title>sj&#45;&gt;gs</title>
<path fill="none" stroke="black" d="M35.81,-648.76C40.32,-640.46 45.92,-630.15 51,-620.79"/>
<polygon fill="black" stroke="black" points="54.54,-622.61 56.23,-612.15 48.39,-619.27 54.54,-622.61"/>
</g>
<!-- gs&#45;&gt;qz -->
<g id="edge23" class="edge">
<title>gs&#45;&gt;qz</title>
<path fill="none" stroke="black" d="M68.65,-612.11C73.74,-632 84.82,-664.56 106,-684 136.62,-712.1 183.23,-725.55 215.73,-731.82"/>
<polygon fill="black" stroke="black" points="214.71,-735.37 225.16,-733.68 215.93,-728.48 214.71,-735.37"/>
</g>
<!-- gq -->
<g id="node30" class="node">
<title>gq</title>
<ellipse fill="none" stroke="black" cx="102" cy="-522" rx="28.32" ry="18"/>
<text text-anchor="middle" x="102" y="-516.95" font-family="Times,serif" font-size="14.00">%gq</text>
</g>
<!-- gs&#45;&gt;gq -->
<g id="edge22" class="edge">
<title>gs&#45;&gt;gq</title>
<path fill="none" stroke="black" d="M73.58,-576.76C77.97,-568.46 83.42,-558.15 88.37,-548.79"/>
<polygon fill="black" stroke="black" points="91.89,-550.62 93.46,-540.15 85.7,-547.35 91.89,-550.62"/>
</g>
<!-- bq -->
<g id="node17" class="node">
<title>bq</title>
<ellipse fill="none" stroke="black" cx="1021" cy="-594" rx="27.81" ry="18"/>
<text text-anchor="middle" x="1021" y="-588.95" font-family="Times,serif" font-size="14.00">&amp;bq</text>
</g>
<!-- rx -->
<g id="node18" class="node">
<title>rx</title>
<ellipse fill="none" stroke="black" cx="1021" cy="-522" rx="27" ry="18"/>
<text text-anchor="middle" x="1021" y="-516.95" font-family="Times,serif" font-size="14.00">rx</text>
</g>
<!-- bq&#45;&gt;rx -->
<g id="edge11" class="edge">
<title>bq&#45;&gt;rx</title>
<path fill="none" stroke="black" d="M1021,-575.7C1021,-568.24 1021,-559.32 1021,-550.97"/>
<polygon fill="black" stroke="black" points="1024.5,-551.1 1021,-541.1 1017.5,-551.1 1024.5,-551.1"/>
</g>
<!-- xm -->
<g id="node20" class="node">
<title>xm</title>
<ellipse fill="none" stroke="black" cx="747" cy="-594" rx="31.39" ry="18"/>
<text text-anchor="middle" x="747" y="-588.95" font-family="Times,serif" font-size="14.00">%xm</text>
</g>
<!-- hf&#45;&gt;xm -->
<g id="edge12" class="edge">
<title>hf&#45;&gt;xm</title>
<path fill="none" stroke="black" d="M905.95,-656.13C874.87,-644.18 819.22,-622.78 782.71,-608.73"/>
<polygon fill="black" stroke="black" points="784.08,-605.13 773.49,-604.81 781.57,-611.66 784.08,-605.13"/>
</g>
<!-- xm&#45;&gt;lx -->
<g id="edge68" class="edge">
<title>xm&#45;&gt;lx</title>
<path fill="none" stroke="black" d="M744.47,-612.11C740.92,-636.14 734.41,-680.15 730.14,-708.99"/>
<polygon fill="black" stroke="black" points="726.58,-708.18 728.58,-718.59 733.5,-709.21 726.58,-708.18"/>
</g>
<!-- kh -->
<g id="node53" class="node">
<title>kh</title>
<ellipse fill="none" stroke="black" cx="706" cy="-522" rx="28.32" ry="18"/>
<text text-anchor="middle" x="706" y="-516.95" font-family="Times,serif" font-size="14.00">%kh</text>
</g>
<!-- xm&#45;&gt;kh -->
<g id="edge67" class="edge">
<title>xm&#45;&gt;kh</title>
<path fill="none" stroke="black" d="M737.28,-576.41C732.36,-568.01 726.28,-557.63 720.8,-548.26"/>
<polygon fill="black" stroke="black" points="723.44,-546.85 715.36,-539.99 717.4,-550.39 723.44,-546.85"/>
</g>
<!-- mq&#45;&gt;db -->
<g id="edge77" class="edge">
<title>mq&#45;&gt;db</title>
<path fill="none" stroke="black" d="M1164.49,-179.66C1153.42,-205.8 1134,-258.3 1134,-305 1134,-667 1134,-667 1134,-667 1134,-726.16 1196.26,-770.84 1235.59,-793.16"/>
<polygon fill="black" stroke="black" points="1233.59,-796.61 1244.04,-798.35 1236.96,-790.47 1233.59,-796.61"/>
</g>
<!-- bh -->
<g id="node33" class="node">
<title>bh</title>
<ellipse fill="none" stroke="black" cx="1172" cy="-90" rx="28.32" ry="18"/>
<text text-anchor="middle" x="1172" y="-84.95" font-family="Times,serif" font-size="14.00">%bh</text>
</g>
<!-- mq&#45;&gt;bh -->
<g id="edge76" class="edge">
<title>mq&#45;&gt;bh</title>
<path fill="none" stroke="black" d="M1172,-143.7C1172,-136.24 1172,-127.32 1172,-118.97"/>
<polygon fill="black" stroke="black" points="1175.5,-119.1 1172,-109.1 1168.5,-119.1 1175.5,-119.1"/>
</g>
<!-- db&#45;&gt;gz -->
<g id="edge61" class="edge">
<title>db&#45;&gt;gz</title>
<path fill="none" stroke="black" d="M1256.01,-793.22C1239.45,-767.85 1210,-715.88 1210,-667 1210,-667 1210,-667 1210,-449 1210,-409.03 1217.11,-363.23 1222.39,-334.71"/>
<polygon fill="black" stroke="black" points="1226,-335.44 1224.44,-324.96 1219.13,-334.13 1226,-335.44"/>
</g>
<!-- db&#45;&gt;kg -->
<g id="edge56" class="edge">
<title>db&#45;&gt;kg</title>
<path fill="none" stroke="black" d="M1287.51,-797.49C1302.98,-787.98 1323.88,-773.27 1338,-756 1353,-737.64 1364.08,-713.04 1371.08,-694.35"/>
<polygon fill="black" stroke="black" points="1374.67,-695.72 1374.73,-685.12 1368.07,-693.37 1374.67,-695.72"/>
</g>
<!-- sp -->
<g id="node31" class="node">
<title>sp</title>
<ellipse fill="none" stroke="black" cx="1267" cy="-882" rx="27.3" ry="18"/>
<text text-anchor="middle" x="1267" y="-876.95" font-family="Times,serif" font-size="14.00">%sp</text>
</g>
<!-- db&#45;&gt;sp -->
<g id="edge57" class="edge">
<title>db&#45;&gt;sp</title>
<path fill="none" stroke="black" d="M1272.86,-827.79C1273.68,-835.42 1273.93,-844.65 1273.62,-853.27"/>
<polygon fill="black" stroke="black" points="1270.07,-852.84 1272.88,-863.05 1277.06,-853.32 1270.07,-852.84"/>
</g>
<!-- jh -->
<g id="node32" class="node">
<title>jh</title>
<ellipse fill="none" stroke="black" cx="1529" cy="-738" rx="27" ry="18"/>
<text text-anchor="middle" x="1529" y="-732.95" font-family="Times,serif" font-size="14.00">%jh</text>
</g>
<!-- db&#45;&gt;jh -->
<g id="edge60" class="edge">
<title>db&#45;&gt;jh</title>
<path fill="none" stroke="black" d="M1293.57,-804.04C1335.45,-795.91 1419.14,-778.38 1488,-756 1490.95,-755.04 1493.99,-753.96 1497.02,-752.82"/>
<polygon fill="black" stroke="black" points="1498.1,-755.76 1506.11,-748.82 1495.52,-749.26 1498.1,-755.76"/>
</g>
<!-- fx -->
<g id="node36" class="node">
<title>fx</title>
<ellipse fill="none" stroke="black" cx="1323" cy="-450" rx="27" ry="18"/>
<text text-anchor="middle" x="1323" y="-444.95" font-family="Times,serif" font-size="14.00">%fx</text>
</g>
<!-- db&#45;&gt;fx -->
<g id="edge59" class="edge">
<title>db&#45;&gt;fx</title>
<path fill="none" stroke="black" d="M1291.57,-801.26C1338.45,-784.78 1436,-741.54 1436,-667 1436,-667 1436,-667 1436,-593 1436,-538.71 1384.81,-493.18 1351.34,-469.2"/>
<polygon fill="black" stroke="black" points="1353.64,-465.84 1343.43,-463.02 1349.65,-471.6 1353.64,-465.84"/>
</g>
<!-- kp -->
<g id="node49" class="node">
<title>kp</title>
<ellipse fill="none" stroke="black" cx="1040" cy="-738" rx="27.81" ry="18"/>
<text text-anchor="middle" x="1040" y="-732.95" font-family="Times,serif" font-size="14.00">&amp;kp</text>
</g>
<!-- db&#45;&gt;kp -->
<g id="edge58" class="edge">
<title>db&#45;&gt;kp</title>
<path fill="none" stroke="black" d="M1241.3,-802.56C1205.32,-793.33 1138.07,-775.32 1082,-756 1079.07,-754.99 1076.05,-753.89 1073.03,-752.75"/>
<polygon fill="black" stroke="black" points="1074.53,-749.18 1063.94,-748.8 1071.98,-755.7 1074.53,-749.18"/>
</g>
<!-- gf -->
<g id="node23" class="node">
<title>gf</title>
<ellipse fill="none" stroke="black" cx="667" cy="-450" rx="27" ry="18"/>
<text text-anchor="middle" x="667" y="-444.95" font-family="Times,serif" font-size="14.00">%gf</text>
</g>
<!-- gf&#45;&gt;lx -->
<g id="edge16" class="edge">
<title>gf&#45;&gt;lx</title>
<path fill="none" stroke="black" d="M666.2,-468.16C665.63,-486.15 665.5,-515.21 669,-540 678.25,-605.54 687.37,-620.79 707,-684 709.66,-692.57 712.86,-701.8 715.86,-710.13"/>
<polygon fill="black" stroke="black" points="712.9,-711.24 719.64,-719.41 719.48,-708.82 712.9,-711.24"/>
</g>
<!-- gf&#45;&gt;fn -->
<g id="edge15" class="edge">
<title>gf&#45;&gt;fn</title>
<path fill="none" stroke="black" d="M662.88,-432.05C661.05,-424.52 658.85,-415.44 656.78,-406.94"/>
<polygon fill="black" stroke="black" points="659.96,-406.17 654.2,-397.28 653.15,-407.82 659.96,-406.17"/>
</g>
<!-- bm -->
<g id="node27" class="node">
<title>bm</title>
<ellipse fill="none" stroke="black" cx="650" cy="-306" rx="31.39" ry="18"/>
<text text-anchor="middle" x="650" y="-300.95" font-family="Times,serif" font-size="14.00">%bm</text>
</g>
<!-- fn&#45;&gt;bm -->
<g id="edge71" class="edge">
<title>fn&#45;&gt;bm</title>
<path fill="none" stroke="black" d="M650,-359.7C650,-352.24 650,-343.32 650,-334.97"/>
<polygon fill="black" stroke="black" points="653.5,-335.1 650,-325.1 646.5,-335.1 653.5,-335.1"/>
</g>
<!-- zt&#45;&gt;sk -->
<g id="edge17" class="edge">
<title>zt&#45;&gt;sk</title>
<path fill="none" stroke="black" d="M362.18,-506.83C372.68,-497.03 386.86,-483.8 398.77,-472.68"/>
<polygon fill="black" stroke="black" points="400.67,-475.77 405.59,-466.38 395.89,-470.65 400.67,-475.77"/>
</g>
<!-- sk&#45;&gt;nd -->
<g id="edge37" class="edge">
<title>sk&#45;&gt;nd</title>
<path fill="none" stroke="black" d="M430.75,-467.27C435.92,-477.53 442.18,-491.23 446,-504 457.47,-542.36 460,-552.96 460,-593 460,-667 460,-667 460,-667 460,-758.9 361.58,-831.9 310.29,-863.7"/>
<polygon fill="black" stroke="black" points="308.74,-861.16 302,-869.33 312.37,-867.14 308.74,-861.16"/>
</g>
<!-- bm&#45;&gt;lx -->
<g id="edge18" class="edge">
<title>bm&#45;&gt;lx</title>
<path fill="none" stroke="black" d="M675.76,-316.57C720.07,-334.9 806,-379.42 806,-449 806,-523 806,-523 806,-523 806,-595.4 765.33,-673.35 741.98,-712.13"/>
<polygon fill="black" stroke="black" points="738.71,-709.77 736.46,-720.12 744.68,-713.43 738.71,-709.77"/>
</g>
<!-- cp -->
<g id="node28" class="node">
<title>cp</title>
<ellipse fill="none" stroke="black" cx="592" cy="-234" rx="27.81" ry="18"/>
<text text-anchor="middle" x="592" y="-228.95" font-family="Times,serif" font-size="14.00">%cp</text>
</g>
<!-- bm&#45;&gt;cp -->
<g id="edge19" class="edge">
<title>bm&#45;&gt;cp</title>
<path fill="none" stroke="black" d="M637.13,-289.46C629.51,-280.28 619.73,-268.46 611.21,-258.19"/>
<polygon fill="black" stroke="black" points="613.51,-256.48 604.44,-251.01 608.12,-260.94 613.51,-256.48"/>
</g>
<!-- cp&#45;&gt;lx -->
<g id="edge20" class="edge">
<title>cp&#45;&gt;lx</title>
<path fill="none" stroke="black" d="M588.44,-251.96C583.2,-278.5 574,-331.52 574,-377 574,-595 574,-595 574,-595 574,-640.37 591.4,-652.45 624,-684 643.35,-702.73 670.63,-716.43 692.12,-725.21"/>
<polygon fill="black" stroke="black" points="690.55,-728.75 701.14,-729.13 693.1,-722.23 690.55,-728.75"/>
</g>
<!-- gb -->
<g id="node29" class="node">
<title>gb</title>
<ellipse fill="none" stroke="black" cx="573" cy="-162" rx="28.32" ry="18"/>
<text text-anchor="middle" x="573" y="-156.95" font-family="Times,serif" font-size="14.00">%gb</text>
</g>
<!-- cp&#45;&gt;gb -->
<g id="edge21" class="edge">
<title>cp&#45;&gt;gb</title>
<path fill="none" stroke="black" d="M587.4,-216.05C585.3,-208.32 582.76,-198.96 580.4,-190.27"/>
<polygon fill="black" stroke="black" points="583.55,-189.52 577.56,-180.79 576.8,-191.36 583.55,-189.52"/>
</g>
<!-- gb&#45;&gt;lx -->
<g id="edge91" class="edge">
<title>gb&#45;&gt;lx</title>
<path fill="none" stroke="black" d="M565.69,-179.68C554.91,-205.85 536,-258.38 536,-305 536,-595 536,-595 536,-595 536,-640.15 550.86,-654.45 585,-684 614.76,-709.76 658.27,-723.55 689.07,-730.54"/>
<polygon fill="black" stroke="black" points="688.28,-734.17 698.79,-732.82 689.74,-727.32 688.28,-734.17"/>
</g>
<!-- dl -->
<g id="node56" class="node">
<title>dl</title>
<ellipse fill="none" stroke="black" cx="573" cy="-90" rx="27" ry="18"/>
<text text-anchor="middle" x="573" y="-84.95" font-family="Times,serif" font-size="14.00">%dl</text>
</g>
<!-- gb&#45;&gt;dl -->
<g id="edge92" class="edge">
<title>gb&#45;&gt;dl</title>
<path fill="none" stroke="black" d="M573,-143.7C573,-136.24 573,-127.32 573,-118.97"/>
<polygon fill="black" stroke="black" points="576.5,-119.1 573,-109.1 569.5,-119.1 576.5,-119.1"/>
</g>
<!-- gq&#45;&gt;qz -->
<g id="edge31" class="edge">
<title>gq&#45;&gt;qz</title>
<path fill="none" stroke="black" d="M101.98,-540.36C102.83,-572.35 108.93,-641.22 144,-684 162.51,-706.58 192.97,-720.25 217,-728.04"/>
<polygon fill="black" stroke="black" points="215.93,-731.68 226.52,-731.21 217.95,-724.97 215.93,-731.68"/>
</g>
<!-- xb -->
<g id="node35" class="node">
<title>xb</title>
<ellipse fill="none" stroke="black" cx="140" cy="-450" rx="28.32" ry="18"/>
<text text-anchor="middle" x="140" y="-444.95" font-family="Times,serif" font-size="14.00">%xb</text>
</g>
<!-- gq&#45;&gt;xb -->
<g id="edge32" class="edge">
<title>gq&#45;&gt;xb</title>
<path fill="none" stroke="black" d="M110.81,-504.76C115.32,-496.46 120.92,-486.15 126,-476.79"/>
<polygon fill="black" stroke="black" points="129.54,-478.61 131.23,-468.15 123.39,-475.27 129.54,-478.61"/>
</g>
<!-- sp&#45;&gt;db -->
<g id="edge24" class="edge">
<title>sp&#45;&gt;db</title>
<path fill="none" stroke="black" d="M1261.12,-864.05C1260.31,-856.4 1260.06,-847.16 1260.39,-838.56"/>
<polygon fill="black" stroke="black" points="1263.93,-839.01 1261.14,-828.79 1256.95,-838.52 1263.93,-839.01"/>
</g>
<!-- sp&#45;&gt;jh -->
<g id="edge25" class="edge">
<title>sp&#45;&gt;jh</title>
<path fill="none" stroke="black" d="M1287.56,-869.86C1333.57,-844.92 1445.02,-784.52 1498.87,-755.33"/>
<polygon fill="black" stroke="black" points="1500.41,-757.93 1507.54,-750.09 1497.08,-751.78 1500.41,-757.93"/>
</g>
<!-- jh&#45;&gt;kg -->
<g id="edge49" class="edge">
<title>jh&#45;&gt;kg</title>
<path fill="none" stroke="black" d="M1507.33,-726.82C1482.21,-715.02 1440.56,-695.45 1411.78,-681.93"/>
<polygon fill="black" stroke="black" points="1413.72,-678.5 1403.18,-677.42 1410.74,-684.84 1413.72,-678.5"/>
</g>
<!-- bh&#45;&gt;db -->
<g id="edge27" class="edge">
<title>bh&#45;&gt;db</title>
<path fill="none" stroke="black" d="M1157.7,-105.77C1135.69,-130.15 1096,-181.27 1096,-233 1096,-667 1096,-667 1096,-667 1096,-713.04 1114.63,-725.37 1149,-756 1172.62,-777.05 1205.98,-790.98 1231.2,-799.26"/>
<polygon fill="black" stroke="black" points="1229.87,-802.82 1240.46,-802.46 1231.96,-796.14 1229.87,-802.82"/>
</g>
<!-- kr -->
<g id="node34" class="node">
<title>kr</title>
<ellipse fill="none" stroke="black" cx="1342" cy="-18" rx="27" ry="18"/>
<text text-anchor="middle" x="1342" y="-12.95" font-family="Times,serif" font-size="14.00">%kr</text>
</g>
<!-- bh&#45;&gt;kr -->
<g id="edge26" class="edge">
<title>bh&#45;&gt;kr</title>
<path fill="none" stroke="black" d="M1195.28,-79.41C1224.87,-67.23 1276.09,-46.14 1309.51,-32.38"/>
<polygon fill="black" stroke="black" points="1310.36,-35.4 1318.27,-28.36 1307.69,-28.93 1310.36,-35.4"/>
</g>
<!-- kr&#45;&gt;db -->
<g id="edge62" class="edge">
<title>kr&#45;&gt;db</title>
<path fill="none" stroke="black" d="M1366.36,-26.57C1413.36,-42.87 1512,-86.01 1512,-161 1512,-595 1512,-595 1512,-595 1512,-679.23 1477.35,-702.86 1412,-756 1380.66,-781.49 1335.95,-795.34 1304.49,-802.41"/>
<polygon fill="black" stroke="black" points="1304.02,-799.15 1294.96,-804.64 1305.47,-806 1304.02,-799.15"/>
</g>
<!-- xb&#45;&gt;qz -->
<g id="edge28" class="edge">
<title>xb&#45;&gt;qz</title>
<path fill="none" stroke="black" d="M141.47,-468.32C145.78,-515.92 159.46,-647.56 182,-684 191.69,-699.67 207.85,-712.28 222.31,-721.26"/>
<polygon fill="black" stroke="black" points="220.09,-724.59 230.48,-726.63 223.63,-718.56 220.09,-724.59"/>
</g>
<!-- xb&#45;&gt;vn -->
<g id="edge29" class="edge">
<title>xb&#45;&gt;vn</title>
<path fill="none" stroke="black" d="M148.81,-432.76C153.32,-424.46 158.92,-414.15 164,-404.79"/>
<polygon fill="black" stroke="black" points="167.54,-406.61 169.23,-396.15 161.39,-403.27 167.54,-406.61"/>
</g>
<!-- qf -->
<g id="node37" class="node">
<title>qf</title>
<ellipse fill="none" stroke="black" cx="1265" cy="-378" rx="27" ry="18"/>
<text text-anchor="middle" x="1265" y="-372.95" font-family="Times,serif" font-size="14.00">%qf</text>
</g>
<!-- fx&#45;&gt;qf -->
<g id="edge30" class="edge">
<title>fx&#45;&gt;qf</title>
<path fill="none" stroke="black" d="M1310.41,-433.81C1302.81,-424.64 1292.97,-412.76 1284.39,-402.4"/>
<polygon fill="black" stroke="black" points="1286.64,-400.63 1277.56,-395.16 1281.25,-405.09 1286.64,-400.63"/>
</g>
<!-- qf&#45;&gt;gz -->
<g id="edge70" class="edge">
<title>qf&#45;&gt;gz</title>
<path fill="none" stroke="black" d="M1256.42,-360.76C1252.03,-352.46 1246.58,-342.15 1241.63,-332.79"/>
<polygon fill="black" stroke="black" points="1244.3,-331.35 1236.54,-324.15 1238.11,-334.62 1244.3,-331.35"/>
</g>
<!-- qf&#45;&gt;db -->
<g id="edge69" class="edge">
<title>qf&#45;&gt;db</title>
<path fill="none" stroke="black" d="M1261.64,-395.97C1256.69,-422.52 1248,-475.56 1248,-521 1248,-667 1248,-667 1248,-667 1248,-707 1255.5,-752.79 1261.08,-781.31"/>
<polygon fill="black" stroke="black" points="1257.83,-781.94 1263.25,-791.05 1264.7,-780.55 1257.83,-781.94"/>
</g>
<!-- xp -->
<g id="node38" class="node">
<title>xp</title>
<ellipse fill="none" stroke="black" cx="1836" cy="-306" rx="28.32" ry="18"/>
<text text-anchor="middle" x="1836" y="-300.95" font-family="Times,serif" font-size="14.00">%xp</text>
</g>
<!-- xp&#45;&gt;sd -->
<g id="edge34" class="edge">
<title>xp&#45;&gt;sd</title>
<path fill="none" stroke="black" d="M1823.27,-322.51C1804.1,-347.51 1770,-398.98 1770,-449 1770,-667 1770,-667 1770,-667 1770,-710.53 1793.36,-756.52 1810.17,-783.98"/>
<polygon fill="black" stroke="black" points="1807.71,-785.64 1816.01,-792.22 1813.62,-781.9 1807.71,-785.64"/>
</g>
<!-- xp&#45;&gt;zn -->
<g id="edge33" class="edge">
<title>xp&#45;&gt;zn</title>
<path fill="none" stroke="black" d="M1836,-287.7C1836,-280.24 1836,-271.32 1836,-262.97"/>
<polygon fill="black" stroke="black" points="1839.5,-263.1 1836,-253.1 1832.5,-263.1 1839.5,-263.1"/>
</g>
<!-- cv -->
<g id="node51" class="node">
<title>cv</title>
<ellipse fill="none" stroke="black" cx="1750" cy="-162" rx="27.81" ry="18"/>
<text text-anchor="middle" x="1750" y="-156.95" font-family="Times,serif" font-size="14.00">%cv</text>
</g>
<!-- zn&#45;&gt;cv -->
<g id="edge78" class="edge">
<title>zn&#45;&gt;cv</title>
<path fill="none" stroke="black" d="M1819.42,-219.5C1806.89,-209.3 1789.47,-195.13 1775.22,-183.53"/>
<polygon fill="black" stroke="black" points="1777.79,-180.29 1767.82,-176.69 1773.37,-185.72 1777.79,-180.29"/>
</g>
<!-- hl -->
<g id="node40" class="node">
<title>hl</title>
<ellipse fill="none" stroke="black" cx="1711" cy="-90" rx="27" ry="18"/>
<text text-anchor="middle" x="1711" y="-84.95" font-family="Times,serif" font-size="14.00">%hl</text>
</g>
<!-- hl&#45;&gt;tr -->
<g id="edge35" class="edge">
<title>hl&#45;&gt;tr</title>
<path fill="none" stroke="black" d="M1704.36,-72.41C1701.16,-64.39 1697.23,-54.57 1693.62,-45.54"/>
<polygon fill="black" stroke="black" points="1696.55,-44.45 1689.59,-36.47 1690.05,-47.05 1696.55,-44.45"/>
</g>
<!-- hl&#45;&gt;sd -->
<g id="edge36" class="edge">
<title>hl&#45;&gt;sd</title>
<path fill="none" stroke="black" d="M1707.64,-107.97C1702.69,-134.52 1694,-187.56 1694,-233 1694,-667 1694,-667 1694,-667 1694,-726.47 1756.92,-771.31 1796.21,-793.51"/>
<polygon fill="black" stroke="black" points="1794.18,-796.94 1804.63,-798.66 1797.53,-790.8 1794.18,-796.94"/>
</g>
<!-- mh&#45;&gt;sd -->
<g id="edge39" class="edge">
<title>mh&#45;&gt;sd</title>
<path fill="none" stroke="black" d="M1821.12,-864.05C1820.31,-856.4 1820.06,-847.16 1820.39,-838.56"/>
<polygon fill="black" stroke="black" points="1823.93,-839.01 1821.14,-828.79 1816.95,-838.52 1823.93,-839.01"/>
</g>
<!-- mh&#45;&gt;xs -->
<g id="edge38" class="edge">
<title>mh&#45;&gt;xs</title>
<path fill="none" stroke="black" d="M1847.49,-867.9C1887.37,-842.38 1975.5,-786.02 2020.84,-757.01"/>
<polygon fill="black" stroke="black" points="2022.29,-759.6 2028.83,-751.26 2018.52,-753.7 2022.29,-759.6"/>
</g>
<!-- xs&#45;&gt;sh -->
<g id="edge90" class="edge">
<title>xs&#45;&gt;sh</title>
<path fill="none" stroke="black" d="M2027.16,-726.67C2002.1,-714.82 1960.79,-695.28 1932.31,-681.81"/>
<polygon fill="black" stroke="black" points="1933.98,-678.26 1923.45,-677.14 1930.99,-684.58 1933.98,-678.26"/>
</g>
<!-- gp&#45;&gt;zt -->
<g id="edge51" class="edge">
<title>gp&#45;&gt;zt</title>
<path fill="none" stroke="black" d="M347,-575.7C347,-568.24 347,-559.32 347,-550.97"/>
<polygon fill="black" stroke="black" points="350.5,-551.1 347,-541.1 343.5,-551.1 350.5,-551.1"/>
</g>
<!-- gc&#45;&gt;bq -->
<g id="edge52" class="edge">
<title>gc&#45;&gt;bq</title>
<path fill="none" stroke="black" d="M842.97,-656.7C878.56,-644.36 945.57,-621.14 986.46,-606.97"/>
<polygon fill="black" stroke="black" points="987.45,-609.98 995.75,-603.4 985.16,-603.37 987.45,-609.98"/>
</g>
<!-- vh&#45;&gt;qz -->
<g id="edge74" class="edge">
<title>vh&#45;&gt;qz</title>
<path fill="none" stroke="black" d="M349.3,-680.75C332.09,-692.39 305.22,-709.09 284.15,-721.26"/>
<polygon fill="black" stroke="black" points="282.59,-718.69 275.63,-726.67 286.05,-724.77 282.59,-718.69"/>
</g>
<!-- vh&#45;&gt;gp -->
<g id="edge75" class="edge">
<title>vh&#45;&gt;gp</title>
<path fill="none" stroke="black" d="M361.4,-648.05C359.3,-640.32 356.76,-630.96 354.4,-622.27"/>
<polygon fill="black" stroke="black" points="357.55,-621.52 351.56,-612.79 350.8,-623.36 357.55,-621.52"/>
</g>
<!-- vg&#45;&gt;bq -->
<g id="edge47" class="edge">
<title>vg&#45;&gt;bq</title>
<path fill="none" stroke="black" d="M1006.6,-648.05C1008.7,-640.32 1011.24,-630.96 1013.6,-622.27"/>
<polygon fill="black" stroke="black" points="1017.2,-623.36 1016.44,-612.79 1010.45,-621.52 1017.2,-623.36"/>
</g>
<!-- pz -->
<g id="node48" class="node">
<title>pz</title>
<ellipse fill="none" stroke="black" cx="1882" cy="-594" rx="27.81" ry="18"/>
<text text-anchor="middle" x="1882" y="-588.95" font-family="Times,serif" font-size="14.00">%pz</text>
</g>
<!-- sh&#45;&gt;pz -->
<g id="edge48" class="edge">
<title>sh&#45;&gt;pz</title>
<path fill="none" stroke="black" d="M1896.4,-648.05C1894.3,-640.32 1891.76,-630.96 1889.4,-622.27"/>
<polygon fill="black" stroke="black" points="1892.55,-621.52 1886.56,-612.79 1885.8,-623.36 1892.55,-621.52"/>
</g>
<!-- pz&#45;&gt;sd -->
<g id="edge86" class="edge">
<title>pz&#45;&gt;sd</title>
<path fill="none" stroke="black" d="M1876.14,-612.08C1872.7,-622.42 1868.36,-635.9 1865,-648 1852.07,-694.53 1839.73,-749.41 1832.78,-781.58"/>
<polygon fill="black" stroke="black" points="1829.23,-780.46 1830.56,-790.97 1836.08,-781.92 1829.23,-780.46"/>
</g>
<!-- cn -->
<g id="node57" class="node">
<title>cn</title>
<ellipse fill="none" stroke="black" cx="1882" cy="-522" rx="27.81" ry="18"/>
<text text-anchor="middle" x="1882" y="-516.95" font-family="Times,serif" font-size="14.00">%cn</text>
</g>
<!-- pz&#45;&gt;cn -->
<g id="edge87" class="edge">
<title>pz&#45;&gt;cn</title>
<path fill="none" stroke="black" d="M1882,-575.7C1882,-568.24 1882,-559.32 1882,-550.97"/>
<polygon fill="black" stroke="black" points="1885.5,-551.1 1882,-541.1 1878.5,-551.1 1885.5,-551.1"/>
</g>
<!-- kp&#45;&gt;bq -->
<g id="edge50" class="edge">
<title>kp&#45;&gt;bq</title>
<path fill="none" stroke="black" d="M1041.4,-719.79C1042.5,-701.76 1043.22,-672.67 1039,-648 1037.52,-639.34 1034.84,-630.19 1031.99,-621.97"/>
<polygon fill="black" stroke="black" points="1034.99,-620.99 1028.24,-612.83 1028.43,-623.42 1034.99,-620.99"/>
</g>
<!-- xf&#45;&gt;xp -->
<g id="edge53" class="edge">
<title>xf&#45;&gt;xp</title>
<path fill="none" stroke="black" d="M1895.82,-362.83C1885.32,-353.03 1871.14,-339.8 1859.23,-328.68"/>
<polygon fill="black" stroke="black" points="1862.11,-326.65 1852.41,-322.38 1857.33,-331.77 1862.11,-326.65"/>
</g>
<!-- cv&#45;&gt;sd -->
<g id="edge54" class="edge">
<title>cv&#45;&gt;sd</title>
<path fill="none" stroke="black" d="M1746.44,-179.96C1741.2,-206.5 1732,-259.52 1732,-305 1732,-667 1732,-667 1732,-667 1732,-717.27 1773.63,-763.21 1801.78,-788.53"/>
<polygon fill="black" stroke="black" points="1799.18,-791.77 1809.02,-795.7 1803.77,-786.49 1799.18,-791.77"/>
</g>
<!-- cv&#45;&gt;hl -->
<g id="edge55" class="edge">
<title>cv&#45;&gt;hl</title>
<path fill="none" stroke="black" d="M1740.95,-144.76C1736.28,-136.37 1730.46,-125.93 1725.2,-116.5"/>
<polygon fill="black" stroke="black" points="1727.92,-115.18 1720,-108.15 1721.81,-118.59 1727.92,-115.18"/>
</g>
<!-- zs&#45;&gt;db -->
<g id="edge104" class="edge">
<title>zs&#45;&gt;db</title>
<path fill="none" stroke="black" d="M1316.61,-539.5C1312.79,-549.85 1308.11,-563.55 1305,-576 1286.83,-648.83 1275.21,-736.7 1270.07,-780.82"/>
<polygon fill="black" stroke="black" points="1266.5,-780.22 1268.84,-790.55 1273.45,-781.02 1266.5,-780.22"/>
</g>
<!-- zs&#45;&gt;fx -->
<g id="edge105" class="edge">
<title>zs&#45;&gt;fx</title>
<path fill="none" stroke="black" d="M1323,-503.7C1323,-496.24 1323,-487.32 1323,-478.97"/>
<polygon fill="black" stroke="black" points="1326.5,-479.1 1323,-469.1 1319.5,-479.1 1326.5,-479.1"/>
</g>
<!-- kh&#45;&gt;lx -->
<g id="edge72" class="edge">
<title>kh&#45;&gt;lx</title>
<path fill="none" stroke="black" d="M705.48,-540.43C705.11,-558.39 704.99,-587.2 707,-612 709.73,-645.58 716.01,-683.83 720.61,-709.08"/>
<polygon fill="black" stroke="black" points="717.32,-709.51 722.59,-718.7 724.2,-708.23 717.32,-709.51"/>
</g>
<!-- kh&#45;&gt;gf -->
<g id="edge73" class="edge">
<title>kh&#45;&gt;gf</title>
<path fill="none" stroke="black" d="M696.95,-504.76C692.28,-496.37 686.46,-485.93 681.2,-476.5"/>
<polygon fill="black" stroke="black" points="683.92,-475.18 676,-468.15 677.81,-478.59 683.92,-475.18"/>
</g>
<!-- sv -->
<g id="node54" class="node">
<title>sv</title>
<ellipse fill="none" stroke="black" cx="1911" cy="-450" rx="27.3" ry="18"/>
<text text-anchor="middle" x="1911" y="-444.95" font-family="Times,serif" font-size="14.00">%sv</text>
</g>
<!-- sv&#45;&gt;sd -->
<g id="edge80" class="edge">
<title>sv&#45;&gt;sd</title>
<path fill="none" stroke="black" d="M1919.89,-467.51C1933,-493.45 1956,-545.67 1956,-593 1956,-667 1956,-667 1956,-667 1956,-725.49 1895.29,-770.56 1857.17,-793.09"/>
<polygon fill="black" stroke="black" points="1855.95,-790.33 1849.01,-798.33 1859.43,-796.4 1855.95,-790.33"/>
</g>
<!-- sv&#45;&gt;xf -->
<g id="edge79" class="edge">
<title>sv&#45;&gt;xf</title>
<path fill="none" stroke="black" d="M1911,-431.7C1911,-424.24 1911,-415.32 1911,-406.97"/>
<polygon fill="black" stroke="black" points="1914.5,-407.1 1911,-397.1 1907.5,-407.1 1914.5,-407.1"/>
</g>
<!-- lh -->
<g id="node55" class="node">
<title>lh</title>
<ellipse fill="none" stroke="black" cx="733" cy="-18" rx="27" ry="18"/>
<text text-anchor="middle" x="733" y="-12.95" font-family="Times,serif" font-size="14.00">%lh</text>
</g>
<!-- lh&#45;&gt;lx -->
<g id="edge81" class="edge">
<title>lh&#45;&gt;lx</title>
<path fill="none" stroke="black" d="M755.03,-28.68C794.69,-47.77 874,-94.3 874,-161 874,-595 874,-595 874,-595 874,-635.45 880.92,-652.95 855,-684 832.02,-711.52 792.46,-724.94 763.2,-731.36"/>
<polygon fill="black" stroke="black" points="762.66,-728.1 753.54,-733.49 764.03,-734.96 762.66,-728.1"/>
</g>
<!-- dl&#45;&gt;lx -->
<g id="edge83" class="edge">
<title>dl&#45;&gt;lx</title>
<path fill="none" stroke="black" d="M558.89,-105.81C537.17,-130.23 498,-181.42 498,-233 498,-595 498,-595 498,-595 498,-639.73 510.36,-655.7 545,-684 586.4,-717.82 648.62,-730.06 688.25,-734.49"/>
<polygon fill="black" stroke="black" points="687.75,-738.05 698.05,-735.56 688.44,-731.09 687.75,-738.05"/>
</g>
<!-- dl&#45;&gt;lh -->
<g id="edge82" class="edge">
<title>dl&#45;&gt;lh</title>
<path fill="none" stroke="black" d="M595.25,-79.27C622.63,-67.29 669.36,-46.84 700.7,-33.13"/>
<polygon fill="black" stroke="black" points="701.93,-35.98 709.68,-28.76 699.12,-29.56 701.93,-35.98"/>
</g>
<!-- cn&#45;&gt;sd -->
<g id="edge88" class="edge">
<title>cn&#45;&gt;sd</title>
<path fill="none" stroke="black" d="M1868.25,-537.99C1859.96,-547.98 1850.06,-561.84 1845,-576 1819.87,-646.32 1821.57,-735.96 1824.51,-780.8"/>
<polygon fill="black" stroke="black" points="1821.09,-780.98 1825.31,-790.7 1828.07,-780.47 1821.09,-780.98"/>
</g>
<!-- cn&#45;&gt;sv -->
<g id="edge89" class="edge">
<title>cn&#45;&gt;sv</title>
<path fill="none" stroke="black" d="M1888.87,-504.41C1892.2,-496.39 1896.26,-486.57 1900,-477.54"/>
<polygon fill="black" stroke="black" points="1903.58,-479.05 1904.18,-468.47 1897.12,-476.37 1903.58,-479.05"/>
</g>
<!-- tx&#45;&gt;bq -->
<g id="edge93" class="edge">
<title>tx&#45;&gt;bq</title>
<path fill="none" stroke="black" d="M1581.69,-725.09C1549.07,-705.57 1480.38,-667.04 1417,-648 1289.94,-609.84 1131.69,-599.11 1059.78,-596.13"/>
<polygon fill="black" stroke="black" points="1060.13,-592.6 1050,-595.72 1059.86,-599.6 1060.13,-592.6"/>
</g>
<!-- broadcaster -->
<g id="node59" class="node">
<title>broadcaster</title>
<ellipse fill="none" stroke="black" cx="1019" cy="-954" rx="53.4" ry="18"/>
<text text-anchor="middle" x="1019" y="-948.95" font-family="Times,serif" font-size="14.00">broadcaster</text>
</g>
<!-- broadcaster&#45;&gt;lg -->
<g id="edge108" class="edge">
<title>broadcaster&#45;&gt;lg</title>
<path fill="none" stroke="black" d="M978.22,-942.06C927.41,-928.44 841.43,-905.38 793.31,-892.47"/>
<polygon fill="black" stroke="black" points="794.35,-888.86 783.79,-889.65 792.54,-895.62 794.35,-888.86"/>
</g>
<!-- broadcaster&#45;&gt;sp -->
<g id="edge107" class="edge">
<title>broadcaster&#45;&gt;sp</title>
<path fill="none" stroke="black" d="M1059.12,-941.68C1106.87,-928.2 1185.85,-905.91 1231.47,-893.03"/>
<polygon fill="black" stroke="black" points="1232.37,-896.13 1241.04,-890.04 1230.47,-889.39 1232.37,-896.13"/>
</g>
<!-- broadcaster&#45;&gt;mh -->
<g id="edge109" class="edge">
<title>broadcaster&#45;&gt;mh</title>
<path fill="none" stroke="black" d="M1070.46,-948.54C1219.4,-935.64 1648.85,-898.43 1785.04,-886.64"/>
<polygon fill="black" stroke="black" points="1785.16,-890.05 1794.82,-885.7 1784.55,-883.08 1785.16,-890.05"/>
</g>
<!-- broadcaster&#45;&gt;vh -->
<g id="edge106" class="edge">
<title>broadcaster&#45;&gt;vh</title>
<path fill="none" stroke="black" d="M966.56,-950.01C905.83,-945.12 803.66,-932.43 722,-900 584.83,-845.52 444.91,-734.14 390.1,-687.87"/>
<polygon fill="black" stroke="black" points="392.93,-684.84 383.05,-681.03 388.4,-690.17 392.93,-684.84"/>
</g>
</g>
</svg>
